<?xml version="1.0" encoding="UTF-8" standalone="no"?>
<svg
   xmlns:dc="http://purl.org/dc/elements/1.1/"
   xmlns:cc="http://creativecommons.org/ns#"
   xmlns:rdf="http://www.w3.org/1999/02/22-rdf-syntax-ns#"
   xmlns:svg="http://www.w3.org/2000/svg"
   xmlns="http://www.w3.org/2000/svg"
   viewBox="0 0 700 291.28967"
   height="291.28967"
   width="700"
   xml:space="preserve"
   id="svg833"
   version="1.1"><metadata
     id="metadata839"><rdf:RDF><cc:Work
         rdf:about=""><dc:format>image/svg+xml</dc:format><dc:type
           rdf:resource="http://purl.org/dc/dcmitype/StillImage" /><dc:title></dc:title></cc:Work></rdf:RDF></metadata><defs
     id="defs837"><linearGradient
       id="linearGradient2971"
       spreadMethod="pad"
       gradientTransform="matrix(10.853363,-38.580032,-38.580032,-10.853363,306.45842,107.07228)"
       gradientUnits="userSpaceOnUse"
       y2="0"
       x2="1"
       y1="0"
       x1="0"><stop
         id="stop2963"
         offset="0"
         style="stop-opacity:1;stop-color:#4dc6f4" /><stop
         id="stop2965"
         offset="0.175926"
         style="stop-opacity:1;stop-color:#00adef" /><stop
         id="stop2967"
         offset="0.601852"
         style="stop-opacity:1;stop-color:#176fc0" /><stop
         id="stop2969"
         offset="1"
         style="stop-opacity:1;stop-color:#2743a0" /></linearGradient><linearGradient
       id="linearGradient2993"
       spreadMethod="pad"
       gradientTransform="matrix(-9.44133,-16.455536,-16.455536,9.44133,336.68614,91.90567)"
       gradientUnits="userSpaceOnUse"
       y2="0"
       x2="1"
       y1="0"
       x1="0"><stop
         id="stop2987"
         offset="0"
         style="stop-opacity:1;stop-color:#f25655" /><stop
         id="stop2989"
         offset="0.453704"
         style="stop-opacity:1;stop-color:#ed1c24" /><stop
         id="stop2991"
         offset="1"
         style="stop-opacity:1;stop-color:#910f14" /></linearGradient><linearGradient
       id="linearGradient3013"
       spreadMethod="pad"
       gradientTransform="matrix(17.57666,10.522827,10.522827,-17.57666,303.70573,51.678803)"
       gradientUnits="userSpaceOnUse"
       y2="0"
       x2="1"
       y1="0"
       x1="0"><stop
         id="stop3009"
         offset="0"
         style="stop-opacity:1;stop-color:#0b8fd9" /><stop
         id="stop3011"
         offset="1"
         style="stop-opacity:1;stop-color:#2251aa" /></linearGradient><linearGradient
       id="linearGradient3035"
       spreadMethod="pad"
       gradientTransform="matrix(19.293549,0.7375336,0.7375336,-19.293549,307.70518,68.409546)"
       gradientUnits="userSpaceOnUse"
       y2="0"
       x2="1"
       y1="0"
       x1="0"><stop
         id="stop3029"
         offset="0"
         style="stop-opacity:1;stop-color:#301d63" /><stop
         id="stop3031"
         offset="0.00463"
         style="stop-opacity:1;stop-color:#301d63" /><stop
         id="stop3033"
         offset="1"
         style="stop-opacity:1;stop-color:#1d0c2e" /></linearGradient><linearGradient
       id="linearGradient3057"
       spreadMethod="pad"
       gradientTransform="matrix(-63.890076,0,0,63.890076,397.96999,82.849457)"
       gradientUnits="userSpaceOnUse"
       y2="0"
       x2="1"
       y1="0"
       x1="0"><stop
         id="stop3051"
         offset="0"
         style="stop-opacity:1;stop-color:#05a0e6" /><stop
         id="stop3053"
         offset="0.601852"
         style="stop-opacity:1;stop-color:#1d5eb4" /><stop
         id="stop3055"
         offset="1"
         style="stop-opacity:1;stop-color:#2743a0" /></linearGradient><linearGradient
       id="linearGradient3079"
       spreadMethod="pad"
       gradientTransform="matrix(-63.887848,0,0,63.887848,397.96901,72.530624)"
       gradientUnits="userSpaceOnUse"
       y2="0"
       x2="1"
       y1="0"
       x1="0"><stop
         id="stop3073"
         offset="0"
         style="stop-opacity:1;stop-color:#05a0e6" /><stop
         id="stop3075"
         offset="0.601852"
         style="stop-opacity:1;stop-color:#1d5eb4" /><stop
         id="stop3077"
         offset="1"
         style="stop-opacity:1;stop-color:#2743a0" /></linearGradient><linearGradient
       id="linearGradient3101"
       spreadMethod="pad"
       gradientTransform="matrix(-63.886581,0,0,63.886581,397.9687,68.973373)"
       gradientUnits="userSpaceOnUse"
       y2="0"
       x2="1"
       y1="0"
       x1="0"><stop
         id="stop3095"
         offset="0"
         style="stop-opacity:1;stop-color:#05a0e6" /><stop
         id="stop3097"
         offset="0.601852"
         style="stop-opacity:1;stop-color:#1d5eb4" /><stop
         id="stop3099"
         offset="1"
         style="stop-opacity:1;stop-color:#2743a0" /></linearGradient><linearGradient
       id="linearGradient3123"
       spreadMethod="pad"
       gradientTransform="matrix(-63.889435,0,0,63.889435,397.96999,68.67157)"
       gradientUnits="userSpaceOnUse"
       y2="0"
       x2="1"
       y1="0"
       x1="0"><stop
         id="stop3117"
         offset="0"
         style="stop-opacity:1;stop-color:#05a0e6" /><stop
         id="stop3119"
         offset="0.601852"
         style="stop-opacity:1;stop-color:#1d5eb4" /><stop
         id="stop3121"
         offset="1"
         style="stop-opacity:1;stop-color:#2743a0" /></linearGradient><linearGradient
       id="linearGradient3145"
       spreadMethod="pad"
       gradientTransform="matrix(-63.885941,0,0,63.885941,397.96776,68.973373)"
       gradientUnits="userSpaceOnUse"
       y2="0"
       x2="1"
       y1="0"
       x1="0"><stop
         id="stop3139"
         offset="0"
         style="stop-opacity:1;stop-color:#05a0e6" /><stop
         id="stop3141"
         offset="0.601852"
         style="stop-opacity:1;stop-color:#1d5eb4" /><stop
         id="stop3143"
         offset="1"
         style="stop-opacity:1;stop-color:#2743a0" /></linearGradient></defs><g
     transform="matrix(1.3333333,0,0,-1.3333333,-338.07878,145.36799)"
     id="g841"><g
       style="stroke-width:0.276517"
       transform="matrix(3.616409,0,0,3.616409,-663.41432,-285.25661)"
       id="g9755"><g
         style="stroke-width:0.276517"
         id="g9736"><path
           id="path2973"
           style="opacity:1;fill:url(#linearGradient2971);stroke:none;stroke-width:0.276517;stop-opacity:1"
           d="m 304.6,109.026 c 8.572,-20.285 6.455,-38.491 3.452,-49.7 v 0 c 9.135,6.173 14.693,12.875 18.059,18.968 v 0 c -4.178,23.83 -21.486,30.722 -21.511,30.732 z" /><path
           id="path2995"
           style="opacity:1;fill:url(#linearGradient2993);stroke:none;stroke-width:0.276517;stop-opacity:1"
           d="m 326.111,78.294 c 0.836,-4.767 1.146,-10.211 0.687,-16.415 v 0 c 2.044,1.954 4.038,4.147 5.814,6.734 v 0 c 13.218,19.254 -1.522,30.009 -1.522,30.009 v 0 c 0,0 1.203,-9.135 -4.979,-20.328" /><path
           id="path3015"
           style="opacity:1;fill:url(#linearGradient3013);stroke:none;stroke-width:0.276517;stop-opacity:1"
           d="m 308.052,59.326 c -1.427,-5.327 -3.054,-9.073 -3.83,-10.71 v 0 c 7.216,2.913 15.441,6.439 22.576,13.263 v 0 c -9.834,-2.897 -18.746,-2.553 -18.746,-2.553" /><path
           id="path3037"
           style="opacity:1;fill:url(#linearGradient3035);stroke:none;stroke-width:0.276517;stop-opacity:1"
           d="m 308.052,59.326 c 0,0 8.912,-0.344 18.746,2.553 v 0 c 0.459,6.204 0.149,11.648 -0.687,16.415 v 0 c -3.366,-6.093 -8.924,-12.795 -18.059,-18.968" /></g><path
         d="m 371.534,85.716 -3.412,-19.442 c -0.114,-0.726 -0.241,-1.671 -0.212,-2.526 v 0 c 0.15,-3.086 1.916,-4.402 5.902,-4.402 v 0 c 1.771,0 4.381,0.413 6.054,1.205 v 0 10e-4 c -0.849,0.976 -1.458,2.142 -1.815,3.468 v 0 c -0.604,-0.154 -1.108,-0.232 -1.496,-0.232 v 0 c -1.077,0 -1.591,0.404 -1.665,1.316 v 0 c -0.013,0.351 0.019,0.794 0.09,1.214 v 0 l 3.404,19.398 z"
         style="opacity:1;fill:url(#linearGradient3079);stroke:none;stroke-width:0.276517;stop-opacity:1"
         id="path3081" /><path
         d="m 382.592,74.928 c -2.122,-2.194 -3.28,-5.221 -3.175,-8.306 v 0 c 0.09,-2.718 1.368,-7.276 8.897,-7.276 v 0 c 3.247,0 5.783,0.755 7.295,1.361 v 0 l 0.791,4.501 c -1.314,-0.676 -2.786,-1.179 -4.365,-1.466 v 0 c -0.036,-0.007 -0.075,-0.015 -0.111,-0.022 v 0 c -0.618,-0.12 -1.217,-0.183 -1.797,-0.183 v 0 c -2.376,0 -3.802,1.166 -3.816,3.117 v 0 0.127 l 0.125,0.007 c 8.302,0.458 12.437,2.891 12.291,7.232 v 0 c -0.097,2.912 -2.561,4.581 -6.761,4.581 v 0 c -3.81,0 -7.05,-1.27 -9.374,-3.673 m 4.027,-4.609 c 1.007,3.996 3.673,4.306 4.466,4.306 v 0 c 0.807,0 1.634,-0.395 1.664,-1.279 v 0 c 0.033,-0.93 -0.683,-1.741 -2.063,-2.343 v 0 c -1.087,-0.472 -2.557,-0.791 -3.932,-0.85 v 0 l -0.179,-0.008 z"
         style="opacity:1;fill:url(#linearGradient3101);stroke:none;stroke-width:0.276517;stop-opacity:1"
         id="path3103" /><g
         style="stroke-width:0.276517"
         id="g9740"><path
           id="path3059"
           style="opacity:1;fill:url(#linearGradient3057);stroke:none;stroke-width:0.276517;stop-opacity:1"
           d="m 359.974,84.424 c -0.57,-0.588 -0.87,-1.324 -0.843,-2.073 v 0 c 0.046,-1.429 1.282,-2.352 3.146,-2.352 v 0 c 1.385,0 2.633,0.469 3.424,1.286 v 0 c 0.551,0.571 0.829,1.259 0.805,1.992 v 0 c -0.048,1.427 -1.36,2.423 -3.192,2.423 v 0 c -1.339,0 -2.557,-0.464 -3.34,-1.276" /><path
           id="path3125"
           style="opacity:1;fill:url(#linearGradient3123);stroke:none;stroke-width:0.276517;stop-opacity:1"
           d="m 358.652,77.998 -2.068,-11.724 c -0.115,-0.726 -0.242,-1.671 -0.213,-2.526 v 0 c 0.151,-3.086 1.916,-4.402 5.902,-4.402 v 0 c 1.545,0 3.452,0.298 4.916,0.766 v 0 c -0.602,0.95 -0.941,2.137 -1.009,3.531 v 0 l -0.002,0.03 c -0.002,0.089 -0.004,0.177 -0.004,0.267 v 0 c -0.457,-0.101 -0.846,-0.152 -1.157,-0.152 v 0 c -1.078,0 -1.592,0.404 -1.665,1.316 v 0 c -0.014,0.352 0.019,0.794 0.09,1.214 v 0 l 2.061,11.68 z" /></g><path
         d="m 338.932,76.745 c -0.903,-2.842 -2.387,-5.939 -4.67,-9.265 v 0 c -0.061,-0.088 -0.126,-0.176 -0.188,-0.265 v 0 c -0.002,-0.298 0.004,-0.573 0.012,-0.807 v 0 c 0.152,-4.554 3.13,-7.062 8.38,-7.062 v 0 c 6.796,0 11.243,3.562 12.201,9.772 v 0 c 0.114,0.809 0.153,1.683 0.12,2.673 v 0 c -0.206,6.146 -5.981,6.81 -8.455,6.81 v 0 c -1.963,0 -4.974,-0.288 -7.4,-1.856 m 2.698,-12.728 c -0.489,0.502 -0.727,1.329 -0.703,2.461 v 0 c 0.021,1 0.193,2.247 0.457,3.335 v 0 c 0.73,3.1 2.18,4.741 4.193,4.741 v 0 c 0.648,0 1.162,-0.191 1.53,-0.566 v 0 c 0.472,-0.483 0.7,-1.269 0.677,-2.339 v 0 c -0.013,-0.668 -0.096,-1.734 -0.407,-3.011 v 0 c -0.812,-3.577 -2.133,-5.173 -4.288,-5.173 v 0 c -0.608,0 -1.1,0.186 -1.459,0.552"
         style="opacity:1;fill:url(#linearGradient3145);stroke:none;stroke-width:0.276517;stop-opacity:1"
         id="path3147" /><path
         id="path3159"
         style="opacity:1;fill:#172963;fill-opacity:1;fill-rule:nonzero;stroke:none;stroke-width:0.276517;stop-opacity:1"
         d="m 304.9675,80.456497 0.945,5.393 h -14.891 c -4.519,0 -6.51,-1.762 -7.604,-4.53 -0.301,-0.791 -0.501,-1.654 -0.672,-2.553 l -3.308,-18.979 h 8.039 l 1.774,10.339 h 13.871 l 0.945,5.392 h -13.888 l 0.936,4.938 z" /><path
         id="path3163"
         style="opacity:1;fill:#172963;fill-opacity:1;fill-rule:nonzero;stroke:none;stroke-width:0.276517;stop-opacity:1"
         d="m 279.0891,80.456497 0.945,5.393 h -14.89 c -4.52,0 -6.511,-1.762 -7.605,-4.53 -0.301,-0.791 -0.501,-1.654 -0.672,-2.553 l -3.308,-18.979 h 8.039 l 1.774,10.339 h 13.872 l 0.944,5.392 h -13.888 l 0.936,4.938 z" /></g></g></svg>
