<?xml version="1.0" encoding="UTF-8" standalone="no"?>
<!DOCTYPE svg PUBLIC "-//W3C//DTD SVG 1.1//EN" "http://www.w3.org/Graphics/SVG/1.1/DTD/svg11.dtd">
<svg width="100%" height="100%" viewBox="0 0 489 304" version="1.1" xmlns="http://www.w3.org/2000/svg" xmlns:xlink="http://www.w3.org/1999/xlink" xml:space="preserve" xmlns:serif="http://www.serif.com/" style="fill-rule:evenodd;clip-rule:evenodd;stroke-linejoin:round;stroke-miterlimit:2;">
    <g transform="matrix(1,0,0,1,-203.462,615.926)">
        <g>
            <g transform="matrix(1.33981,0,0,1.33981,1044.56,-835.539)">
                <g transform="matrix(0.972595,-0.232505,0.232505,0.972595,-91.7962,-94.0703)">
                    <text x="-444.949px" y="342.369px" style="font-family:'Skincake';font-size:35.143px;fill:rgb(0,127,221);">a</text>
                </g>
                <g transform="matrix(0.980335,-0.197341,0.197341,0.980335,-75.2925,-78.1451)">
                    <text x="-429.742px" y="338.71px" style="font-family:'Skincake';font-size:35.143px;fill:rgb(0,127,221);">v</text>
                </g>
                <g transform="matrix(0.988004,-0.15443,0.15443,0.988004,-56.7527,-59.8122)">
                    <text x="-413.362px" y="335.387px" style="font-family:'Skincake';font-size:35.143px;fill:rgb(0,127,221);">e</text>
                </g>
                <g transform="matrix(0.995228,-0.0975773,0.0975773,0.995228,-34.3482,-37.068)">
                    <text x="-396.152px" y="332.636px" style="font-family:'Skincake';font-size:35.143px;fill:rgb(0,127,221);">c</text>
                </g>
                <g transform="matrix(0.999974,0.00716335,-0.00716335,0.999974,2.3565,2.60849)">
                    <text x="-362.961px" y="330.267px" style="font-family:'Skincake';font-size:35.143px;fill:rgb(0,127,221);">l</text>
                </g>
                <g transform="matrix(0.998351,0.0573962,-0.0573962,0.998351,18.372,20.8277)">
                    <text x="-353.391px" y="330.241px" style="font-family:'Skincake';font-size:35.143px;fill:rgb(0,127,221);">a</text>
                </g>
                <g transform="matrix(0.980573,0.196157,-0.196157,0.980573,58.8931,70.281)">
                    <text x="-325.363px" y="332.459px" style="font-family:'Skincake';font-size:35.143px;fill:rgb(0,127,221);">m</text>
                </g>
                <g transform="matrix(0.959806,0.280663,-0.280663,0.959806,82.4425,98.5354)">
                    <text x="-302.804px" y="337.107px" style="font-family:'Skincake';font-size:35.143px;fill:rgb(0,127,221);">e</text>
                </g>
                <g transform="matrix(0.938668,0.344823,-0.344823,0.938668,100.382,119.625)">
                    <text x="-286.088px" y="341.996px" style="font-family:'Skincake';font-size:35.143px;fill:rgb(0,127,221);">r</text>
                </g>
            </g>
            <g transform="matrix(1.02907,0,0,0.718524,1038.61,-680.913)">
                <path d="M-484.613,407.792C-466.574,404.181 -447.395,406.726 -429.52,411.077C-405.537,416.913 -379.048,442.812 -379.048,442.812C-379.048,442.812 -409.418,423.689 -438.525,423.698C-455.144,423.703 -483.533,424.268 -519.916,440.429C-552.524,454.913 -607.505,471.824 -642.366,473.961C-672.028,475.78 -707.487,464.908 -729.081,453.251C-748.225,442.917 -771.928,404.019 -771.928,404.019C-771.928,404.019 -745.638,435.488 -727.298,442.556C-706.646,450.514 -674.353,455.544 -648.017,451.772C-607.569,445.978 -535.87,418.052 -484.613,407.792Z" style="fill:rgb(0,94,207);"/>
            </g>
            <g transform="matrix(1,0,0,1,941.648,-752.741)">
                <g transform="matrix(0.875218,0.483728,-0.483728,0.875218,74.5615,392.097)">
                    <text x="-722.721px" y="340.571px" style="font-family:'Skincake';font-size:60px;fill:rgb(0,127,221);">C</text>
                </g>
                <g transform="matrix(0.955315,0.295591,-0.295591,0.955315,78.1459,215.624)">
                    <text x="-674.095px" y="366.277px" style="font-family:'Skincake';font-size:60px;fill:rgb(0,127,221);">O</text>
                </g>
                <g transform="matrix(0.994934,0.100528,-0.100528,0.994934,34.7691,65.8231)">
                    <text x="-635.73px" y="377.901px" style="font-family:'Skincake';font-size:60px;fill:rgb(0,127,221);">P</text>
                </g>
                <g transform="matrix(0.999206,-0.0398438,0.0398438,0.999206,-15.6471,-23.3214)">
                    <text x="-592.912px" y="380.894px" style="font-family:'Skincake';font-size:60px;fill:rgb(0,127,221);">&apos;</text>
                </g>
                <g transform="matrix(0.984723,-0.174125,0.174125,0.984723,-75.2072,-95.0263)">
                    <text x="-579.17px" y="381.102px" style="font-family:'Skincake';font-size:60px;fill:rgb(0,127,221);">U</text>
                </g>
                <g transform="matrix(0.953675,-0.300839,0.300839,0.953675,-137.004,-144.316)">
                    <text x="-537.102px" y="372.7px" style="font-family:'Skincake';font-size:60px;fill:rgb(0,127,221);">N</text>
                </g>
            </g>
            <g transform="matrix(0.997066,0.0765466,-0.0765466,0.997066,1069.78,-733.071)">
                <path d="M-574.319,439.215C-544.155,425.522 -510.458,409.252 -479.414,405.905C-428.781,400.445 -411.6,418.474 -411.6,418.474C-411.6,418.474 -439.466,410.569 -468.644,416.7C-493.455,421.914 -526.09,433.971 -561.813,449.339C-588.852,460.971 -606.058,469.227 -645.733,471.571C-674.263,473.257 -694.83,457.683 -694.83,457.683C-694.83,457.683 -665.567,463.901 -651.098,461.684C-631.013,458.606 -599.101,450.465 -574.319,439.215Z" style="fill:rgb(103,197,255);"/>
            </g>
            <g transform="matrix(0.876671,-0.221812,0.18651,0.661441,-347.823,-3.40305)">
                <path d="M908.444,-466.688C962.465,-483.398 1051.98,-493.203 1079.68,-482.199C1094.41,-476.352 1105.08,-461.328 1108.94,-444.318C1117.3,-407.441 1106.6,-394.002 1093.67,-387.819C1070.35,-376.659 1032.12,-390.955 1032.12,-390.955C1032.12,-390.955 1051.16,-379.044 1064.83,-376.765C1094.23,-371.866 1107.54,-382.311 1107.54,-382.311C1107.54,-382.311 1115.57,-367.389 1098.59,-353.755C1085.6,-343.32 1053.65,-338.845 1031.93,-338.963C929.641,-339.519 849.006,-345.701 808.739,-420.151C802.847,-431.044 794.854,-478.354 803.152,-503.249C811.632,-528.687 819.308,-543.109 819.308,-543.109C773.978,-544.768 747.886,-576.262 760.287,-616.402C760.287,-616.402 771.419,-603.153 774.166,-598.926C779.022,-591.454 812.567,-598.826 826.494,-567.233C827.946,-563.94 827.877,-558.503 828.19,-554.919C835.303,-572.877 841.224,-578.941 851.166,-579.335C873.149,-580.207 871.368,-571.757 889.355,-574.755C898.755,-576.321 902.962,-582.922 902.962,-582.922C907.488,-580.453 906.597,-554.307 887.834,-541.058C872.299,-530.089 830.884,-536.637 828.829,-542.805C828.829,-542.805 826.635,-529.428 824.763,-515.98C823.134,-504.272 829.675,-477.844 839.65,-471.859C847.044,-462.001 880.111,-457.923 908.444,-466.688ZM1016,-421.377C1011.41,-421.377 1007.68,-417.01 1007.68,-409.168C1007.68,-401.325 1011.41,-397.958 1016,-397.958C1020.59,-397.958 1024.32,-401.325 1024.32,-409.168C1024.32,-417.01 1020.59,-421.377 1016,-421.377Z" style="fill:rgb(62,161,255);"/>
            </g>
            <g transform="matrix(-0.627927,0.15472,-0.1548,-0.566901,971.37,-1057.71)">
                <path d="M989.785,-623.171C989.785,-623.171 985.118,-586.921 1005.88,-551.983C1022.68,-523.714 1022.19,-504.428 1010.44,-504.428C998.683,-504.428 987.002,-511.51 981.235,-546.911C975.997,-579.065 989.785,-623.171 989.785,-623.171Z" style="fill:rgb(14,128,255);"/>
            </g>
            <g transform="matrix(0.625685,-0.162689,0.163628,0.564666,-97.9615,-111.411)">
                <path d="M932.284,-542.726C926.897,-545.308 930.161,-554.98 933.87,-558.967C939.567,-565.092 945.238,-569.764 964.031,-568.291C972.083,-567.66 983.896,-559.318 989.888,-543.886C995.095,-530.478 991.508,-518.42 991.508,-518.42C991.508,-518.42 986.914,-540.714 968.784,-545.848C956.462,-549.337 938.103,-539.937 932.284,-542.726Z" style="fill:rgb(14,156,255);"/>
            </g>
            <g transform="matrix(-0.625685,0.162689,0.163628,0.564666,1155.47,-438.802)">
                <path d="M954.432,-541.058C949.045,-543.64 951.096,-556.526 956.504,-561.157C961.975,-565.842 985.356,-560.778 991.348,-545.346C996.555,-531.938 991.508,-518.42 991.508,-518.42C991.508,-518.42 990.565,-532.455 978.033,-537.345C966.103,-542.001 960.251,-538.269 954.432,-541.058Z" style="fill:rgb(14,160,255);"/>
            </g>
        </g>
    </g>
</svg>
